<svg width="541" height="12" viewBox="0 0 541 12" fill="none" xmlns="http://www.w3.org/2000/svg">
<path d="M1 1C9.17497 1 9.17497 11 17.3499 11C25.5249 11 25.5249 1 33.6999 1C41.8749 1 41.8749 11 50.0307 11C58.2059 11 58.2059 1 66.3615 1C74.5366 1 74.5366 11 82.6922 11C90.8673 11 90.8674 1 99.0419 1C107.217 1 107.217 11 115.392 11C123.567 11 123.567 1 131.742 1C139.917 1 139.917 11 148.092 11C156.267 11 156.267 1 164.442 1C172.617 1 172.617 11 180.792 11C188.967 11 188.967 1 197.142 1C205.317 1 205.317 11 213.473 11C221.648 11 221.648 1 229.803 1C237.979 1 237.979 11 246.134 11C254.309 11 254.309 1 262.484 1C270.659 1 270.659 11 278.834 11C287.009 11 287.009 1 295.184 1C303.359 1 303.359 11 311.534 11C319.709 11 319.709 1 327.884 1C336.059 1 336.059 11 344.234 11C352.409 11 352.409 1 360.584 1C368.759 1 368.759 11 376.915 11C385.09 11 385.09 1 393.245 1M262.166 1C270.341 1 270.341 11 278.516 11C286.691 11 286.691 1 294.866 1C303.041 1 303.041 11 311.197 11C319.372 11 319.372 1 327.527 1C335.703 1 335.703 11 343.858 11C352.033 11 352.033 1 360.208 1C368.383 1 368.383 11 376.558 11C384.733 11 384.733 1 392.908 1C401.083 1 401.083 11 409.258 11C417.433 11 417.433 1 425.608 1C433.783 1 433.783 11 441.958 11C450.133 11 450.133 1 458.308 1C466.483 1 466.483 11 474.638 11C482.814 11 482.814 1 490.969 1C499.144 1 499.144 11 507.3 11C515.475 11 515.475 1 523.65 1C531.825 1 531.825 11 540 11" stroke="#A1A6B4" stroke-miterlimit="10" stroke-linecap="square"/>
</svg>
