<svg width="112" height="112" viewBox="0 0 112 112" fill="none" xmlns="http://www.w3.org/2000/svg">
<path opacity="0.5" d="M56 0L56.0108 55.9449L77.4304 4.26273L56.0312 55.9535L95.5979 16.402L56.0465 55.9688L107.737 34.5696L56.0551 55.9892L112 56L56.0551 56.0108L107.737 77.4304L56.0465 56.0312L95.5979 95.5979L56.0312 56.0465L77.4304 107.737L56.0108 56.0551L56 112L55.9892 56.0551L34.5696 107.737L55.9688 56.0465L16.402 95.5979L55.9535 56.0312L4.26273 77.4304L55.9449 56.0108L0 56L55.9449 55.9892L4.26273 34.5696L55.9535 55.9688L16.402 16.402L55.9688 55.9535L34.5696 4.26273L55.9892 55.9449L56 0Z" stroke="#A1A6B4"/>
</svg>
